<svg width="35" height="35" viewBox="0 0 35 35" fill="none" xmlns="http://www.w3.org/2000/svg">
<path d="M10.1208 7.29166C10.1204 8.06521 9.81276 8.80692 9.26551 9.35363C8.71825 9.90034 7.97623 10.2073 7.20268 10.2069C6.42914 10.2065 5.68742 9.89882 5.14072 9.35157C4.59401 8.80431 4.28709 8.06229 4.28748 7.28874C4.28786 6.5152 4.59552 5.77348 5.14278 5.22678C5.69003 4.68007 6.43205 4.37315 7.2056 4.37354C7.97915 4.37392 8.72086 4.68158 9.26757 5.22884C9.81428 5.77609 10.1212 6.51811 10.1208 7.29166ZM10.2083 12.3667H4.37498V30.625H10.2083V12.3667ZM19.425 12.3667H13.6208V30.625H19.3666V21.0437C19.3666 15.7062 26.3229 15.2104 26.3229 21.0437V30.625H32.0833V19.0604C32.0833 10.0625 21.7875 10.3979 19.3666 14.8167L19.425 12.3667Z" fill="white"/>
</svg>
