<svg width="19" height="18" viewBox="0 0 19 18" fill="none" xmlns="http://www.w3.org/2000/svg">
<path d="M2.875 2.16667H16.375C16.5739 2.16667 16.7647 2.24276 16.9053 2.3782C17.046 2.51364 17.125 2.69734 17.125 2.88889V14.4444C17.125 14.636 17.046 14.8197 16.9053 14.9551C16.7647 15.0906 16.5739 15.1667 16.375 15.1667H2.875C2.67609 15.1667 2.48532 15.0906 2.34467 14.9551C2.20402 14.8197 2.125 14.636 2.125 14.4444V2.88889C2.125 2.69734 2.20402 2.51364 2.34467 2.3782C2.48532 2.24276 2.67609 2.16667 2.875 2.16667ZM15.625 5.22744L9.679 10.3552L3.625 5.21156V13.7222H15.625V5.22744ZM4.00825 3.61111L9.67075 8.42255L15.2515 3.61111H4.00825Z" fill="#1D4E88"/>
</svg>
