<svg width="16" height="16" viewBox="0 0 16 16" fill="none" xmlns="http://www.w3.org/2000/svg">
<path d="M6.22818 12.5213L4.94085 12.176L5.46551 10.2167C4.68016 9.92702 3.95026 9.50491 3.30751 8.96867L1.87218 10.4047L0.928846 9.46134L2.36485 8.026C1.55423 7.05518 1.00957 5.89051 0.78418 4.646L2.09618 4.40667C2.60218 7.208 5.05285 9.33333 8.00018 9.33333C10.9468 9.33333 13.3982 7.208 13.9042 4.40667L15.2162 4.64534C14.9911 5.89001 14.4467 7.05491 13.6362 8.026L15.0715 9.46134L14.1282 10.4047L12.6928 8.96867C12.0501 9.50491 11.3202 9.92702 10.5348 10.2167L11.0595 12.1767L9.77218 12.5213L9.24685 10.5613C8.42175 10.7027 7.57861 10.7027 6.75351 10.5613L6.22818 12.5213Z" fill="#1D4E88"/>
</svg>
