<svg width="16" height="19" viewBox="0 0 16 19" fill="none" xmlns="http://www.w3.org/2000/svg">
<path d="M13.3033 13.47L8 18.7733L2.69667 13.47C1.64779 12.4211 0.933489 11.0847 0.644107 9.62989C0.354725 8.17504 0.503256 6.66704 1.07092 5.2966C1.63858 3.92616 2.59987 2.75483 3.83324 1.93072C5.0666 1.10661 6.51665 0.666748 8 0.666748C9.48336 0.666748 10.9334 1.10661 12.1668 1.93072C13.4001 2.75483 14.3614 3.92616 14.9291 5.2966C15.4968 6.66704 15.6453 8.17504 15.3559 9.62989C15.0665 11.0847 14.3522 12.4211 13.3033 13.47ZM8 11.5C8.88406 11.5 9.7319 11.1488 10.357 10.5237C10.9821 9.89858 11.3333 9.05074 11.3333 8.16668C11.3333 7.28263 10.9821 6.43478 10.357 5.80966C9.7319 5.18454 8.88406 4.83335 8 4.83335C7.11595 4.83335 6.2681 5.18454 5.64298 5.80966C5.01786 6.43478 4.66667 7.28263 4.66667 8.16668C4.66667 9.05074 5.01786 9.89858 5.64298 10.5237C6.2681 11.1488 7.11595 11.5 8 11.5ZM8 9.83335C7.55798 9.83335 7.13405 9.65775 6.82149 9.34519C6.50893 9.03263 6.33334 8.60871 6.33334 8.16668C6.33334 7.72466 6.50893 7.30073 6.82149 6.98817C7.13405 6.67561 7.55798 6.50002 8 6.50002C8.44203 6.50002 8.86595 6.67561 9.17851 6.98817C9.49107 7.30073 9.66667 7.72466 9.66667 8.16668C9.66667 8.60871 9.49107 9.03263 9.17851 9.34519C8.86595 9.65775 8.44203 9.83335 8 9.83335Z" fill="#6DA8EE"/>
</svg>
