<svg width="30" height="23" viewBox="0 0 30 23" fill="none" xmlns="http://www.w3.org/2000/svg">
<path d="M29.7252 2.67786C28.6119 3.13217 27.4312 3.43053 26.2223 3.56308C27.4965 2.86006 28.4502 1.75364 28.9056 0.450006C27.7098 1.10652 26.3988 1.56662 25.0323 1.81551C24.1144 0.90954 22.8978 0.308698 21.5716 0.106391C20.2454 -0.0959167 18.8839 0.111646 17.6987 0.69681C16.5136 1.28197 15.5712 2.21195 15.0181 3.34217C14.465 4.47239 14.3321 5.73952 14.6402 6.94657C12.2152 6.83444 9.84278 6.25308 7.67709 5.24025C5.5114 4.22741 3.60081 2.80573 2.06938 1.06751C1.5273 1.92643 1.24244 2.90283 1.24396 3.89672C1.24396 5.84744 2.32021 7.5708 3.95646 8.57979C2.98814 8.55166 2.04113 8.31043 1.19438 7.87618V7.94614C1.19467 9.24532 1.682 10.5044 2.57374 11.51C3.46548 12.5155 4.70675 13.2056 6.08709 13.4633C5.18819 13.688 4.24566 13.7211 3.33084 13.5602C3.72002 14.6784 4.47855 15.6564 5.50024 16.3572C6.52193 17.058 7.75561 17.4465 9.02855 17.4683C7.76341 18.3849 6.31485 19.0625 4.76566 19.4623C3.21648 19.8621 1.59706 19.9764 0 19.7984C2.78789 21.4524 6.03327 22.3305 9.34792 22.3276C20.5669 22.3276 26.7021 13.7539 26.7021 6.3183C26.7021 6.07614 26.6948 5.83129 26.6831 5.59183C27.8773 4.79562 28.908 3.8093 29.7267 2.6792L29.7252 2.67786Z" fill="white"/>
</svg>
