<svg width="35" height="35" viewBox="0 0 35 35" fill="none" xmlns="http://www.w3.org/2000/svg">
<path d="M31.4168 9.47617C32.0833 12.0749 32.0833 17.4999 32.0833 17.4999C32.0833 17.4999 32.0833 22.9249 31.4168 25.5237C31.0464 26.9601 29.9629 28.0903 28.5906 28.4724C26.0983 29.1666 17.5 29.1666 17.5 29.1666C17.5 29.1666 8.906 29.1666 6.40933 28.4724C5.03121 28.0845 3.94913 26.9558 3.58308 25.5237C2.91663 22.9249 2.91663 17.4999 2.91663 17.4999C2.91663 17.4999 2.91663 12.0749 3.58308 9.47617C3.9535 8.03971 5.03704 6.9095 6.40933 6.52742C8.906 5.83325 17.5 5.83325 17.5 5.83325C17.5 5.83325 26.0983 5.83325 28.5906 6.52742C29.9687 6.91533 31.0508 8.04409 31.4168 9.47617ZM14.5833 22.6041L23.3333 17.4999L14.5833 12.3958V22.6041Z" fill="white"/>
</svg>
